<svg xmlns="http://www.w3.org/2000/svg" xmlns:xlink="http://www.w3.org/1999/xlink" viewBox="0 0 32 32"><defs><linearGradient id="a" x1="-5.18" x2="26.49" y1="5.92" y2="37.17" gradientUnits="userSpaceOnUse"><stop offset="0" stop-color="#ea5455"/><stop offset="1" stop-color="#feb692"/></linearGradient><linearGradient id="b" x1="5.83" x2="37.5" y1="-5.24" y2="26.01" xlink:href="#a"/></defs><g data-name="blood donation"><path fill="url(#a)" d="M30.86,24a2.49,2.49,0,0,0-2.93-1.55l-3.95,1s0,0,0-.05v0a.77.77,0,0,0,0-.15,1.53,1.53,0,0,0,0-.3,1.29,1.29,0,0,0,0-.19,1.62,1.62,0,0,0,0-.19l-.06-.14,0-.07a2.47,2.47,0,0,0-.89-1.08l-.22-.13L22.52,21l-.32-.13-.08,0-.34-.08-.18,0-.21,0h-.58c-.11,0-.21,0-.32,0l-.71,0-.2,0L19,20.62A11.27,11.27,0,0,1,17.13,20l-1.9-.84A2.56,2.56,0,0,0,13.64,19l-3.21.69a3.55,3.55,0,0,0-.53-1.17A3,3,0,0,0,8,17.28l-5.82-.87A1,1,0,0,0,1,17.4v12a1,1,0,0,0,1,1H6.4a3.08,3.08,0,0,0,2.91-2.61l7.22,2.78a6.05,6.05,0,0,0,2.26.43,6.17,6.17,0,0,0,2.31-.45l8.29-3.36A2.57,2.57,0,0,0,30.86,24ZM6.4,28.4H3V18.56l4.67.7a1,1,0,0,1,.61.42,1.71,1.71,0,0,1,.26,1.26v.11l-.94,5.1,0,.07v0l-.21,1.1C7.25,28,6.84,28.4,6.4,28.4Zm22.23-3.06-8.28,3.35a4.2,4.2,0,0,1-3.1,0L9.7,25.8l.52-2.43.23-1.64,3.61-.79a.55.55,0,0,1,.36,0l1.9.83h0l.32.14a10.1,10.1,0,0,0,2,.63c.23.05.46.07.7.1l.25,0a7.81,7.81,0,0,0,.83,0h.9a.76.76,0,0,1,.21,0h0l.17.07.05,0,.07.06a.61.61,0,0,1,.14.29c0,.05,0,.09,0,.13l0,.15s0,0,0,.06a.56.56,0,0,1-.1.15.34.34,0,0,1-.06.06.56.56,0,0,1-.38.14l-7.12,0a1,1,0,0,0,0,2h0l7.12,0a2.51,2.51,0,0,0,1.13-.27l.28,0a1,1,0,0,0,.41,0l5.19-1.3a.47.47,0,0,1,.57.32h0A.56.56,0,0,1,28.63,25.34Z"/><path fill="url(#b)" d="M21.27,17a6,6,0,0,0,6-6c0-4.92-5.11-9.55-5.33-9.75a1,1,0,0,0-1.33,0c-.22.2-5.34,4.83-5.34,9.75A6,6,0,0,0,21.27,17Zm0-13.6c1.29,1.34,4,4.52,4,7.6a4,4,0,0,1-8,0C17.27,7.92,20,4.74,21.27,3.4Z"/></g></svg>